<?xml version="1.0" encoding="utf-8"?>
<!-- Generator: Adobe Illustrator 25.2.1, SVG Export Plug-In . SVG Version: 6.00 Build 0)  -->
<svg version="1.1" id="Server-Logo" xmlns="http://www.w3.org/2000/svg" xmlns:xlink="http://www.w3.org/1999/xlink" x="0px"
	 y="0px" viewBox="0 0 1880 1024" style="enable-background:new 0 0 1880 1024;" xml:space="preserve">
<style type="text/css">
	.st0{fill:#FFFFFF;stroke:#57575A;stroke-width:2;stroke-miterlimit:10;}
	.st1{fill:#0084C7;}
</style>
<g id="Server-Mitte_1_">
	<rect id="Gehauese" x="773" y="155" class="st0" width="389" height="687"/>
	<path id="_x23_1" class="st1" d="M1105.1,292H831.9c-7.7,0-13.9-6.2-13.9-13.9v-23.3c0-7.7,6.2-13.9,13.9-13.9h273.3
		c7.7,0,13.9,6.2,13.9,13.9v23.3C1119,285.8,1112.8,292,1105.1,292z"/>
	<path id="_x23_2" class="st1" d="M1105.1,377H831.9c-7.7,0-13.9-6.2-13.9-13.9v-23.3c0-7.7,6.2-13.9,13.9-13.9h273.3
		c7.7,0,13.9,6.2,13.9,13.9v23.3C1119,370.8,1112.8,377,1105.1,377z"/>
	<path id="_x23_3" class="st1" d="M1105.1,462H831.9c-7.7,0-13.9-6.2-13.9-13.9v-23.3c0-7.7,6.2-13.9,13.9-13.9h273.3
		c7.7,0,13.9,6.2,13.9,13.9v23.3C1119,455.8,1112.8,462,1105.1,462z"/>
	<path id="_x23_4" class="st1" d="M1105.1,547H831.9c-7.7,0-13.9-6.2-13.9-13.9v-23.3c0-7.7,6.2-13.9,13.9-13.9h273.3
		c7.7,0,13.9,6.2,13.9,13.9v23.3C1119,540.8,1112.8,547,1105.1,547z"/>
</g>
<g id="Server-Rechts">
	<polygon id="Gehauese_1_" class="st0" points="1592,793 1203,842 1203,155 1592,204 	"/>
	<path id="_x23_1_1_" class="st1" d="M1542.2,317.7L1270,297.1c-8.5-0.6-15.5-7.3-15.5-14.8v-22.9c0-7.5,6.9-12.9,15.5-12.1
		l272.3,25.7c6.8,0.6,12.3,6.6,12.3,13.2v20.3C1554.5,313.2,1549,318.2,1542.2,317.7z"/>
	<path id="_x23_2_1_" class="st1" d="M1542.2,392.1L1270,380c-8.5-0.4-15.5-6.8-15.5-14.3v-22.9c0-7.5,6.9-13.2,15.5-12.6
		l272.3,17.2c6.8,0.4,12.3,6.2,12.3,12.8v20.3C1554.5,387.3,1549,392.4,1542.2,392.1z"/>
	<path id="_x23_3_1_" class="st1" d="M1542.2,466.5l-272.3-3.6c-8.5-0.1-15.5-6.3-15.5-13.8v-22.9c0-7.5,6.9-13.4,15.5-13.1
		l272.3,8.7c6.8,0.2,12.3,5.8,12.3,12.5v20.3C1554.5,461.3,1549,466.6,1542.2,466.5z"/>
	<path id="_x23_4_1_" class="st1" d="M1542.2,541l-272.3,4.8c-8.5,0.2-15.5-5.8-15.5-13.3v-22.9c0-7.5,6.9-13.6,15.5-13.6l272.3,0.2
		c6.8,0,12.3,5.4,12.3,12.1v20.3C1554.5,535.3,1549,540.8,1542.2,541z"/>
</g>
<g id="Server-Links">
	<polygon id="Gehauese_2_" class="st0" points="341.6,792.8 730.6,841.8 730.6,154.8 341.6,203.8 	"/>
	<path id="_x23_1_2_" class="st1" d="M391.3,317.5l272.3-20.6c8.5-0.6,15.5-7.3,15.5-14.8v-22.9c0-7.5-6.9-12.9-15.5-12.1
		l-272.3,25.7c-6.8,0.6-12.3,6.6-12.3,13.2v20.3C379,313,384.5,318,391.3,317.5z"/>
	<path id="_x23_2_2_" class="st1" d="M391.3,391.9l272.3-12.1c8.5-0.4,15.5-6.8,15.5-14.3v-22.9c0-7.5-6.9-13.2-15.5-12.6
		l-272.3,17.2c-6.8,0.4-12.3,6.2-12.3,12.8v20.3C379,387.1,384.5,392.2,391.3,391.9z"/>
	<path id="_x23_3_2_" class="st1" d="M391.3,466.4l272.3-3.6c8.5-0.1,15.5-6.3,15.5-13.8v-22.9c0-7.5-6.9-13.4-15.5-13.1l-272.3,8.7
		c-6.8,0.2-12.3,5.8-12.3,12.5v20.3C379,461.1,384.5,466.5,391.3,466.4z"/>
	<path id="_x23_4_2_" class="st1" d="M391.3,540.8l272.3,4.8c8.5,0.2,15.5-5.8,15.5-13.3v-22.9c0-7.5-6.9-13.6-15.5-13.6l-272.3,0.2
		c-6.8,0-12.3,5.4-12.3,12.1v20.3C379,535.2,384.5,540.7,391.3,540.8z"/>
</g>
</svg>
