<svg id="Server-Logo" xmlns="http://www.w3.org/2000/svg" viewBox="0 0 1252.44 689.44"><defs><style>.cls-1{fill:#0b439e;stroke:#57575a;stroke-miterlimit:10;stroke-width:2px;}.cls-2{fill:#fff;}</style></defs><g id="Server-Mitte"><rect id="Gehauese" class="cls-1" x="432.44" y="1.31" width="389" height="687"/><rect id="_1" data-name="#1" class="cls-2" x="477.44" y="87.31" width="301" height="51" rx="13.85"/><rect id="_2" data-name="#2" class="cls-2" x="477.44" y="172.31" width="301" height="51" rx="13.85"/><rect id="_3" data-name="#3" class="cls-2" x="477.44" y="257.31" width="301" height="51" rx="13.85"/><rect id="_4" data-name="#4" class="cls-2" x="477.44" y="342.31" width="301" height="51" rx="13.85"/></g><g id="Server-Rechts"><polygon id="Gehauese-2" data-name="Gehauese" class="cls-1" points="1251.44 639.31 862.44 688.31 862.44 1.31 1251.44 50.31 1251.44 639.31"/><path id="_1-2" data-name="#1" class="cls-2" d="M1542.22,317.69,1270,297.07c-8.52-.64-15.46-7.26-15.46-14.76V259.45c0-7.5,6.94-12.93,15.46-12.13L1542.22,273a13.69,13.69,0,0,1,12.32,13.23v20.29A11.14,11.14,0,0,1,1542.22,317.69Z" transform="translate(-340.56 -153.69)"/><path id="_2-2" data-name="#2" class="cls-2" d="M1542.22,392.11,1270,380c-8.52-.38-15.46-6.77-15.46-14.28V342.85c0-7.51,6.94-13.15,15.46-12.61l272.26,17.22a13.16,13.16,0,0,1,12.32,12.85V380.6A11.55,11.55,0,0,1,1542.22,392.11Z" transform="translate(-340.56 -153.69)"/><path id="_3-2" data-name="#3" class="cls-2" d="M1542.22,466.54,1270,462.9c-8.52-.12-15.46-6.3-15.46-13.8V426.24c0-7.5,6.94-13.36,15.46-13.09l272.26,8.73a12.67,12.67,0,0,1,12.32,12.47v20.29A12,12,0,0,1,1542.22,466.54Z" transform="translate(-340.56 -153.69)"/><path id="_4-2" data-name="#4" class="cls-2" d="M1542.22,541,1270,545.81c-8.52.15-15.46-5.81-15.46-13.32V509.64c0-7.51,6.94-13.59,15.46-13.58l272.26.25a12.21,12.21,0,0,1,12.32,12.08v20.29A12.46,12.46,0,0,1,1542.22,541Z" transform="translate(-340.56 -153.69)"/></g><g id="Server-Links"><polygon id="Gehauese-3" data-name="Gehauese" class="cls-1" points="1 639.13 390 688.13 390 1.13 1 50.13 1 639.13"/><path id="_1-3" data-name="#1" class="cls-2" d="M391.34,317.51,663.6,296.9c8.51-.65,15.46-7.26,15.46-14.77V259.28c0-7.51-6.95-12.94-15.46-12.13L391.34,272.86A13.69,13.69,0,0,0,379,286.09v20.29A11.15,11.15,0,0,0,391.34,317.51Z" transform="translate(-340.56 -153.69)"/><path id="_2-3" data-name="#2" class="cls-2" d="M391.34,391.94,663.6,379.81c8.51-.38,15.46-6.78,15.46-14.28V342.68c0-7.51-6.95-13.16-15.46-12.62L391.34,347.28A13.19,13.19,0,0,0,379,360.13v20.29A11.56,11.56,0,0,0,391.34,391.94Z" transform="translate(-340.56 -153.69)"/><path id="_3-3" data-name="#3" class="cls-2" d="M391.34,466.37l272.26-3.65c8.51-.11,15.46-6.29,15.46-13.8V426.07c0-7.51-6.95-13.37-15.46-13.1l-272.26,8.74A12.68,12.68,0,0,0,379,434.17v20.29A12,12,0,0,0,391.34,466.37Z" transform="translate(-340.56 -153.69)"/><path id="_4-3" data-name="#4" class="cls-2" d="M391.34,540.79l272.26,4.84c8.51.16,15.46-5.81,15.46-13.31V509.47c0-7.51-6.95-13.59-15.46-13.58l-272.26.25A12.2,12.2,0,0,0,379,508.22v20.29A12.46,12.46,0,0,0,391.34,540.79Z" transform="translate(-340.56 -153.69)"/></g></svg>